<mxfile host="app.diagrams.net" modified="2023-08-22T15:08:32.395Z" agent="Mozilla/5.0 (Macintosh; Intel Mac OS X 10_15_7) AppleWebKit/537.36 (KHTML, like Gecko) Chrome/116.0.0.0 Safari/537.36" etag="qnC5yD9nAKMfH8fgkY8t" version="21.6.8" type="github">
  <diagram name="Page-1" id="tYIL3FMBxJXXDgF-OUKn">
    <mxGraphModel dx="735" dy="431" grid="1" gridSize="10" guides="1" tooltips="1" connect="1" arrows="1" fold="1" page="1" pageScale="1" pageWidth="850" pageHeight="1100" math="0" shadow="0">
      <root>
        <mxCell id="0" />
        <mxCell id="1" parent="0" />
        <mxCell id="IS09PTrQX9iY2Xv57lhg-12" value="" style="rounded=0;whiteSpace=wrap;html=1;" vertex="1" parent="1">
          <mxGeometry x="100" y="180" width="560" height="180" as="geometry" />
        </mxCell>
        <mxCell id="IS09PTrQX9iY2Xv57lhg-1" value="" style="rounded=0;whiteSpace=wrap;html=1;shadow=1;" vertex="1" parent="1">
          <mxGeometry x="120" y="200" width="200" height="140" as="geometry" />
        </mxCell>
        <mxCell id="IS09PTrQX9iY2Xv57lhg-2" value="" style="rounded=0;whiteSpace=wrap;html=1;strokeColor=#CC6600;shadow=1;" vertex="1" parent="1">
          <mxGeometry x="440" y="200" width="200" height="140" as="geometry" />
        </mxCell>
        <mxCell id="IS09PTrQX9iY2Xv57lhg-3" value="" style="rounded=0;whiteSpace=wrap;html=1;strokeColor=#3399FF;" vertex="1" parent="1">
          <mxGeometry x="160" y="240" width="140" height="80" as="geometry" />
        </mxCell>
        <mxCell id="IS09PTrQX9iY2Xv57lhg-4" value="&lt;font color=&quot;#ffffff&quot;&gt;&lt;b&gt;app&lt;/b&gt;&lt;/font&gt;" style="rounded=0;whiteSpace=wrap;html=1;fillColor=#000000;" vertex="1" parent="1">
          <mxGeometry x="120" y="200" width="200" height="20" as="geometry" />
        </mxCell>
        <mxCell id="IS09PTrQX9iY2Xv57lhg-5" value="&lt;b&gt;&lt;font color=&quot;#ffffff&quot;&gt;prometheus server&lt;/font&gt;&lt;/b&gt;" style="rounded=0;whiteSpace=wrap;html=1;strokeColor=#CC6600;fillColor=#CC6600;" vertex="1" parent="1">
          <mxGeometry x="440" y="200" width="200" height="20" as="geometry" />
        </mxCell>
        <mxCell id="IS09PTrQX9iY2Xv57lhg-6" value="&lt;font color=&quot;#ffffff&quot;&gt;&lt;b&gt;opentelemetry go sdk&lt;/b&gt;&lt;/font&gt;" style="rounded=0;whiteSpace=wrap;html=1;strokeColor=#3399FF;fillColor=#3399FF;" vertex="1" parent="1">
          <mxGeometry x="160" y="240" width="140" height="20" as="geometry" />
        </mxCell>
        <mxCell id="IS09PTrQX9iY2Xv57lhg-7" value="&lt;font color=&quot;#cc6600&quot;&gt;&lt;b&gt;prometheus&lt;br&gt;reader&lt;/b&gt;&lt;/font&gt;" style="rounded=0;whiteSpace=wrap;html=1;strokeColor=#CC6600;" vertex="1" parent="1">
          <mxGeometry x="200" y="270" width="90" height="40" as="geometry" />
        </mxCell>
        <mxCell id="IS09PTrQX9iY2Xv57lhg-9" value="&lt;b&gt;&lt;font color=&quot;#cc6600&quot;&gt;prometheus proto data&lt;/font&gt;&lt;/b&gt;" style="text;html=1;strokeColor=none;fillColor=none;align=center;verticalAlign=middle;whiteSpace=wrap;rounded=0;" vertex="1" parent="1">
          <mxGeometry x="331" y="260" width="80" height="30" as="geometry" />
        </mxCell>
        <mxCell id="IS09PTrQX9iY2Xv57lhg-11" value="&lt;b&gt;&lt;font color=&quot;#cc6600&quot;&gt;Pull&lt;/font&gt;&lt;/b&gt;" style="text;html=1;strokeColor=none;fillColor=none;align=center;verticalAlign=middle;whiteSpace=wrap;rounded=0;" vertex="1" parent="1">
          <mxGeometry x="331" y="290" width="80" height="30" as="geometry" />
        </mxCell>
        <mxCell id="IS09PTrQX9iY2Xv57lhg-13" value="&lt;font color=&quot;#cc6600&quot;&gt;&lt;b&gt;prometheus&lt;br&gt;scraper&lt;br&gt;&lt;/b&gt;&lt;/font&gt;" style="rounded=0;whiteSpace=wrap;html=1;strokeColor=#CC6600;" vertex="1" parent="1">
          <mxGeometry x="450" y="270" width="90" height="40" as="geometry" />
        </mxCell>
        <mxCell id="IS09PTrQX9iY2Xv57lhg-8" value="" style="endArrow=classic;html=1;rounded=0;exitX=1;exitY=0.5;exitDx=0;exitDy=0;entryX=0;entryY=0.5;entryDx=0;entryDy=0;strokeColor=#CC6600;" edge="1" parent="1" source="IS09PTrQX9iY2Xv57lhg-7" target="IS09PTrQX9iY2Xv57lhg-13">
          <mxGeometry width="50" height="50" relative="1" as="geometry">
            <mxPoint x="380" y="340" as="sourcePoint" />
            <mxPoint x="430" y="290" as="targetPoint" />
          </mxGeometry>
        </mxCell>
      </root>
    </mxGraphModel>
  </diagram>
</mxfile>
